<?xml version="1.0" encoding="utf-8"?>
<!-- Generated by IcoMoon.io -->
<!DOCTYPE svg PUBLIC "-//W3C//DTD SVG 1.1//EN" "http://www.w3.org/Graphics/SVG/1.1/DTD/svg11.dtd">
<svg version="1.1" xmlns="http://www.w3.org/2000/svg" xmlns:xlink="http://www.w3.org/1999/xlink" width="512" height="512" viewBox="0 0 512 512">
<g>
</g>
	<path d="M69.878 481.557h365.926v22.077h-365.926v-22.077z" fill="#000000" />
	<path d="M76.186 8.366h365.937v22.078h-365.937v-22.078z" fill="#000000" />
	<path d="M254.208 261.223c-83.497 0-151.204 85.575-151.204 191.14h44.216c3.779-62.659 48.763-91.699 92.518-125.675 3.717-2.877 13.291-53.187 14.151-48.476 1.71 9.175 9.789 40.899 14.305 44.79 38.8 33.25 88.197 66.151 92.344 129.372h44.8c0-105.575-67.656-191.15-151.132-191.15z" fill="#000000" />
	<path d="M239.862 249.876c-45.343-27.177-92.436-46.336-96.184-99.594h214.098c0 53.227-53.842 73.175-94.3 99.901 79.145-6.072 141.865-88.934 141.865-190.536h-302.336c0 99.472 60.089 181.095 136.857 190.228z" fill="#000000" />
	<path d="M239.862 249.876c0.348 0.195 0.696 0.41 1.065 0.594 3.727 2.243 17.541 3.011 22.078 0 0.154-0.071 0.317-0.174 0.471-0.276-3.072 0.236-6.123 0.594-9.267 0.594-4.864 0-9.646-0.338-14.346-0.911z" fill="#000000" />
</svg>
