<?xml version="1.0" encoding="utf-8"?>
<!-- Generator: Adobe Illustrator 16.0.0, SVG Export Plug-In . SVG Version: 6.00 Build 0)  -->
<!DOCTYPE svg PUBLIC "-//W3C//DTD SVG 1.1//EN" "http://www.w3.org/Graphics/SVG/1.1/DTD/svg11.dtd">
<svg version="1.1" id="Layer_1" xmlns="http://www.w3.org/2000/svg" xmlns:xlink="http://www.w3.org/1999/xlink" x="0px" y="0px"
	 width="512px" height="512px" viewBox="0 0 512 512" enable-background="new 0 0 512 512" xml:space="preserve">
<g>
	<path d="M368,128c0,61.859-50.125,160-112,160c-61.844,0-112-98.141-112-160S160,0,256,0S368,66.141,368,128z"/>
	<path d="M416,320h-32c-23.438,0-43.75-12.75-54.875-31.563C308.063,307.625,283.313,320,256,320
		c-27.281,0-52.031-12.375-73.125-31.563C171.734,307.25,151.453,320,128,320H96c0,0-58,16-96,96v64c0,17.688,14.313,32,32,32h448
		c17.688,0,32-14.313,32-32v-64C474,336,416,320,416,320z"/>
</g>
</svg>
